<svg width="100" height="100" viewBox="0 0 100 100" fill="none" xmlns="http://www.w3.org/2000/svg">
<rect width="100" height="100" fill="#EBDDFF"/>
<mask id="mask0_39_10" style="mask-type:alpha" maskUnits="userSpaceOnUse" x="0" y="0" width="100" height="100">
<rect width="100" height="100" rx="20" fill="#00497F"/>
</mask>
<g mask="url(#mask0_39_10)">
<g filter="url(#filter0_d_39_10)">
<path d="M21.332 51.296C23.516 51.296 25.328 51.584 26.768 52.16C28.208 52.712 29.276 53.564 29.972 54.716C30.692 55.844 31.052 57.272 31.052 59C31.052 60.176 30.86 61.208 30.476 62.096C30.116 62.96 29.612 63.704 28.964 64.328C28.316 64.928 27.584 65.42 26.768 65.804L33.824 77H27.308L21.872 67.136H19.676V77H13.844V51.296H21.332ZM21.08 55.76H19.676V62.708H21.116C22.004 62.708 22.748 62.576 23.348 62.312C23.948 62.048 24.404 61.652 24.716 61.124C25.028 60.572 25.184 59.912 25.184 59.144C25.184 58.328 25.04 57.68 24.752 57.2C24.464 56.696 24.02 56.336 23.42 56.12C22.82 55.88 22.04 55.76 21.08 55.76ZM46.4455 69.72C46.4455 71.32 46.1521 72.66 45.5655 73.74C44.9921 74.82 44.1655 75.6333 43.0855 76.18C42.0188 76.7267 40.7388 77 39.2455 77H35.1855V62.72H39.6055C41.0321 62.72 42.2521 62.9867 43.2655 63.52C44.2921 64.0533 45.0788 64.84 45.6255 65.88C46.1721 66.9067 46.4455 68.1867 46.4455 69.72ZM43.0855 69.8C43.0855 68.7467 42.9588 67.88 42.7055 67.2C42.4521 66.52 42.0721 66.02 41.5655 65.7C41.0721 65.3667 40.4521 65.2 39.7055 65.2H38.4255V74.5H39.4255C40.6788 74.5 41.5988 74.1067 42.1855 73.32C42.7855 72.5333 43.0855 71.36 43.0855 69.8ZM53.4727 62.72C54.7127 62.72 55.7327 62.84 56.5327 63.08C57.3327 63.3067 57.926 63.6867 58.3127 64.22C58.6993 64.74 58.8927 65.4467 58.8927 66.34C58.8927 66.8733 58.7993 67.36 58.6127 67.8C58.426 68.24 58.1727 68.6 57.8527 68.88C57.546 69.16 57.1993 69.34 56.8127 69.42V69.52C57.2127 69.6133 57.5927 69.78 57.9527 70.02C58.326 70.26 58.626 70.6067 58.8527 71.06C59.0793 71.5133 59.1927 72.1133 59.1927 72.86C59.1927 73.7267 58.986 74.4733 58.5727 75.1C58.1727 75.7133 57.5993 76.1867 56.8527 76.52C56.106 76.84 55.2127 77 54.1727 77H49.0527V62.72H53.4727ZM53.6527 68.38C54.3727 68.38 54.8727 68.24 55.1527 67.96C55.4327 67.68 55.5727 67.2733 55.5727 66.74C55.5727 66.1933 55.406 65.8 55.0727 65.56C54.7527 65.32 54.246 65.2 53.5527 65.2H52.2927V68.38H53.6527ZM52.2927 70.78V74.5H53.8527C54.5993 74.5 55.1193 74.3267 55.4127 73.98C55.706 73.62 55.8527 73.1467 55.8527 72.56C55.8527 72.2 55.786 71.8867 55.6527 71.62C55.5327 71.3533 55.3193 71.1467 55.0127 71C54.7193 70.8533 54.306 70.78 53.7727 70.78H52.2927Z" fill="#230F46"/>
</g>
</g>
<g filter="url(#filter1_d_39_10)">
<path d="M70 77C68.0426 77 66.3866 76.6986 65.0319 76.0958C63.6773 75.4931 63 74.7574 63 73.8889V66.1111C63 65.2556 63.6838 64.5231 65.0514 63.9139C66.419 63.3046 68.0685 63 70 63C71.9315 63 73.581 63.3046 74.9486 63.9139C76.3162 64.5231 77 65.2556 77 66.1111V73.8889C77 74.7574 76.3227 75.4931 74.9681 76.0958C73.6134 76.6986 71.9574 77 70 77ZM70 67.6861C71.1537 67.6861 72.3139 67.5208 73.4806 67.1903C74.6472 66.8597 75.3019 66.5065 75.4444 66.1306C75.3019 65.7546 74.6505 65.3981 73.4903 65.0611C72.3301 64.7241 71.1667 64.5556 70 64.5556C68.8204 64.5556 67.6634 64.7208 66.5292 65.0514C65.3949 65.3819 64.737 65.7417 64.5556 66.1306C64.737 66.5194 65.3949 66.8759 66.5292 67.2C67.6634 67.5241 68.8204 67.6861 70 67.6861ZM70 71.5556C70.5444 71.5556 71.0694 71.5296 71.575 71.4778C72.0806 71.4259 72.5634 71.3514 73.0236 71.2542C73.4838 71.1569 73.9181 71.037 74.3264 70.8944C74.7347 70.7519 75.1074 70.5898 75.4444 70.4083V68.075C75.1074 68.2565 74.7347 68.4185 74.3264 68.5611C73.9181 68.7037 73.4838 68.8236 73.0236 68.9208C72.5634 69.0181 72.0806 69.0926 71.575 69.1444C71.0694 69.1963 70.5444 69.2222 70 69.2222C69.4556 69.2222 68.9241 69.1963 68.4056 69.1444C67.887 69.0926 67.3977 69.0181 66.9375 68.9208C66.4773 68.8236 66.0463 68.7037 65.6444 68.5611C65.2426 68.4185 64.8796 68.2565 64.5556 68.075V70.4083C64.8796 70.5898 65.2426 70.7519 65.6444 70.8944C66.0463 71.037 66.4773 71.1569 66.9375 71.2542C67.3977 71.3514 67.887 71.4259 68.4056 71.4778C68.9241 71.5296 69.4556 71.5556 70 71.5556ZM70 75.4444C70.5963 75.4444 71.2023 75.3991 71.8181 75.3083C72.4338 75.2176 73.0009 75.0977 73.5194 74.9486C74.038 74.7995 74.4722 74.631 74.8222 74.4431C75.1722 74.2551 75.3796 74.0639 75.4444 73.8694V71.9639C75.1074 72.1454 74.7347 72.3074 74.3264 72.45C73.9181 72.5926 73.4838 72.7125 73.0236 72.8097C72.5634 72.9069 72.0806 72.9815 71.575 73.0333C71.0694 73.0852 70.5444 73.1111 70 73.1111C69.4556 73.1111 68.9241 73.0852 68.4056 73.0333C67.887 72.9815 67.3977 72.9069 66.9375 72.8097C66.4773 72.7125 66.0463 72.5926 65.6444 72.45C65.2426 72.3074 64.8796 72.1454 64.5556 71.9639V73.8889C64.6204 74.0833 64.8245 74.2713 65.1681 74.4528C65.5116 74.6343 65.9426 74.7995 66.4611 74.9486C66.9796 75.0977 67.55 75.2176 68.1722 75.3083C68.7944 75.3991 69.4037 75.4444 70 75.4444Z" fill="#230F46"/>
</g>
<defs>
<filter id="filter0_d_39_10" x="12.844" y="50.296" width="55.3486" height="35.704" filterUnits="userSpaceOnUse" color-interpolation-filters="sRGB">
<feFlood flood-opacity="0" result="BackgroundImageFix"/>
<feColorMatrix in="SourceAlpha" type="matrix" values="0 0 0 0 0 0 0 0 0 0 0 0 0 0 0 0 0 0 127 0" result="hardAlpha"/>
<feOffset dx="4" dy="4"/>
<feGaussianBlur stdDeviation="2.5"/>
<feComposite in2="hardAlpha" operator="out"/>
<feColorMatrix type="matrix" values="0 0 0 0 0 0 0 0 0 0 0 0 0 0 0 0 0 0 0.25 0"/>
<feBlend mode="normal" in2="BackgroundImageFix" result="effect1_dropShadow_39_10"/>
<feBlend mode="normal" in="SourceGraphic" in2="effect1_dropShadow_39_10" result="shape"/>
</filter>
<filter id="filter1_d_39_10" x="62" y="62" width="24" height="24" filterUnits="userSpaceOnUse" color-interpolation-filters="sRGB">
<feFlood flood-opacity="0" result="BackgroundImageFix"/>
<feColorMatrix in="SourceAlpha" type="matrix" values="0 0 0 0 0 0 0 0 0 0 0 0 0 0 0 0 0 0 127 0" result="hardAlpha"/>
<feOffset dx="4" dy="4"/>
<feGaussianBlur stdDeviation="2.5"/>
<feComposite in2="hardAlpha" operator="out"/>
<feColorMatrix type="matrix" values="0 0 0 0 0 0 0 0 0 0 0 0 0 0 0 0 0 0 0.25 0"/>
<feBlend mode="normal" in2="BackgroundImageFix" result="effect1_dropShadow_39_10"/>
<feBlend mode="normal" in="SourceGraphic" in2="effect1_dropShadow_39_10" result="shape"/>
</filter>
</defs>
</svg>
